<?xml version="1.0" standalone="no"?>
<!DOCTYPE svg PUBLIC "-//W3C//DTD SVG 20010904//EN"
 "http://www.w3.org/TR/2001/REC-SVG-20010904/DTD/svg10.dtd">
<svg version="1.0" xmlns="http://www.w3.org/2000/svg"
 width="260.000000pt" height="260.000000pt" viewBox="0 0 260.000000 260.000000"
 preserveAspectRatio="xMidYMid meet">
<metadata>
Created by potrace 1.11, written by Peter Selinger 2001-2013
</metadata>
<g transform="translate(0.000000,260.000000) scale(0.100000,-0.100000)"
fill="#000000" stroke="none">
<path d="M1089 1453 c-52 -134 -129 -350 -129 -360 0 -7 11 -13 24 -13 21 0
28 8 42 55 l18 56 84 -3 84 -3 20 -52 c16 -44 24 -53 44 -53 13 0 24 6 24 13
0 8 -31 96 -68 198 -68 183 -69 184 -100 187 -27 3 -34 -1 -43 -25z m79 -135
l32 -88 -71 0 c-53 0 -70 3 -67 13 3 6 17 50 33 95 15 46 31 80 35 75 4 -4 21
-47 38 -95z"/>
<path d="M1374 1467 c-2 -7 -3 -96 -2 -197 l3 -185 70 -3 c127 -6 185 30 185
113 0 36 -5 48 -31 69 l-30 26 20 26 c40 50 18 133 -40 153 -45 16 -168 14
-175 -2z m164 -50 c8 -9 15 -30 15 -48 0 -44 -32 -69 -89 -69 l-44 0 0 63 c0
35 3 67 8 71 12 13 93 0 110 -17z m17 -182 c30 -29 32 -55 6 -86 -16 -20 -28
-23 -77 -24 l-59 0 -3 68 -3 67 56 0 c46 0 60 -4 80 -25z"/>
</g>
</svg>
